<svg xmlns="http://www.w3.org/2000/svg" xmlns:xlink="http://www.w3.org/1999/xlink"><symbol id="icon-editor-contrast"><g fill="#D22856"><path d="M16.538 4.04c6.595 0 11.96 5.365 11.96 11.96 0 6.595-5.365 11.96-11.96 11.96-6.595 0-11.96-5.365-11.96-11.96 0-6.595 5.365-11.96 11.96-11.96m0-4C7.724.04.578 7.185.578 16c0 8.813 7.146 15.96 15.96 15.96s15.96-7.147 15.96-15.96c0-8.815-7.146-15.96-15.96-15.96z"/><path d="M16.538 24.331a8.519 8.519 0 008.52-8.52 8.518 8.518 0 00-8.52-8.519"/></g></symbol><symbol id="icon-editor-crop"><g fill="none" fill-rule="evenodd"><path d="M-2-2h48v48H-2z"/><path d="M32 28h4V12c0-2.21-1.79-4-4-4H16v4h16v16zm-20 4V0H8v8H0v4h8v20c0 2.21 1.79 4 4 4h20v8h4v-8h8v-4H12z" fill="#D22856" fill-rule="nonzero"/></g></symbol><symbol id="icon-editor-diagram-fill"><path d="M127 .048C57.136.048.5 56.684.5 126.548s56.636 126.5 126.5 126.5 126.5-56.636 126.5-126.5c0-69.863-56.636-126.5-126.5-126.5zm0 237.216c-60.844 0-110.167-49.323-110.167-110.167S66.156 16.93 127 16.93c60.843 0 110.167 49.323 110.167 110.167S187.843 237.264 127 237.264z" fill="#D22856"/></symbol><symbol id="icon-editor-fill"><g fill="none" fill-rule="evenodd"><path d="M0 0h48v48H0z"/><path d="M33.12 17.88L15.24 0l-2.83 2.83 4.76 4.76L6.88 17.88a3 3 0 000 4.24l11 11c.58.59 1.35.88 2.12.88s1.54-.29 2.12-.88l11-11a3 3 0 000-4.24zM10.41 20L20 10.42 29.59 20H10.41zM38 23s-4 4.33-4 7c0 2.21 1.79 4 4 4s4-1.79 4-4c0-2.67-4-7-4-7zM0 40h48v3H0z" fill="#D22856" fill-rule="nonzero"/></g></symbol><symbol id="icon-facebook"><path d="M6.275 3.357h2.398V0H5.795C2.656.181 1.54 2.387 1.948 6.115H0v3.517h1.958v9.312h3.837V9.632h2.857V6.115H5.786c-.021-1.045-.036-2.406.489-2.758z" fill="#D22856"/></symbol><symbol id="icon-heart"><path d="M7.174 12.055a.737.737 0 01-.552-.249C2.824 7.482 1.978 6.508 1.764 6.234H1.76a3.866 3.866 0 01-.821-2.373A3.803 3.803 0 014.738.062c.934 0 1.804.32 2.484.898A3.847 3.847 0 019.685.062a3.803 3.803 0 013.799 3.799c0 .909-.318 1.754-.896 2.381l-4.86 5.561a.735.735 0 01-.554.252zM2.929 5.349c.208.255 2.471 2.839 4.243 4.858l4.323-4.944c.34-.369.52-.86.52-1.399a2.333 2.333 0 00-2.33-2.331c-.729 0-1.421.344-1.9.943a.76.76 0 01-.585.275.727.727 0 01-.575-.294 2.333 2.333 0 00-1.887-.925 2.333 2.333 0 00-2.33 2.331c0 .678.275 1.171.507 1.467l.014.019z" fill="#D22856"/></symbol><symbol id="icon-mail"><g fill="#D22856"><path d="M14.914 1.814C16.111.816 15.816 0 14.257 0H3.731c-1.56 0-1.854.816-.657 1.814l3.742 3.118c1.197.998 3.158.998 4.355 0l3.743-3.118z"/><path d="M11.913 7.044A209.809 209.809 0 019.695 8.88l-.02.013a1.048 1.048 0 01-.235.136c-.033.015-.066.034-.1.048a1.18 1.18 0 01-.335.059l-.01.001h-.002l-.01-.001a1.216 1.216 0 01-.335-.059c-.034-.014-.068-.033-.1-.048a1.07 1.07 0 01-.235-.136l-.02-.013c-.022-.012-1.02-.838-2.218-1.836L2.178 3.796C.979 2.798 0 3.257 0 4.816v6.315a2.842 2.842 0 002.835 2.835h12.318a2.842 2.842 0 002.835-2.835V4.816c0-1.559-.979-2.018-2.178-1.02l-3.897 3.248z"/></g></symbol><symbol id="icon-map-marker"><circle fill="#FFF" cx="17.991" cy="17.991" r="17.991"/><circle fill="#D22856" cx="17.991" cy="17.991" r="7.866"/></symbol><symbol id="icon-menu-burger"><path fill="#FFF" d="M1.137 0C.51 0 0 .428 0 1.01v1.981c0 .558.494 1.01 1.139 1.01H48.81c.628 0 1.138-.428 1.138-1.01V1.01c0-.558-.494-1.01-1.138-1.01H1.137zm0 10.003c-.627 0-1.137.428-1.137 1.01v1.98c0 .557.494 1.01 1.139 1.01H48.81c.628 0 1.138-.428 1.138-1.01v-1.98c0-.558-.494-1.01-1.138-1.01H1.137zm0 10.002C.51 20.005 0 20.434 0 21.016v1.981c0 .557.494 1.01 1.139 1.01H48.81c.628 0 1.138-.428 1.138-1.01v-1.981c0-.558-.494-1.011-1.138-1.011H1.137z"/><path fill="#FFF" d="M1.137 0C.51 0 0 .428 0 1.01v1.981c0 .558.494 1.01 1.139 1.01H48.81c.628 0 1.138-.428 1.138-1.01V1.01c0-.558-.494-1.01-1.138-1.01H1.137zm0 10.003c-.627 0-1.137.428-1.137 1.01v1.98c0 .557.494 1.01 1.139 1.01H48.81c.628 0 1.138-.428 1.138-1.01v-1.98c0-.558-.494-1.01-1.138-1.01H1.137zm0 10.002C.51 20.005 0 20.434 0 21.016v1.981c0 .557.494 1.01 1.139 1.01H48.81c.628 0 1.138-.428 1.138-1.01v-1.981c0-.558-.494-1.011-1.138-1.011H1.137z"/></symbol><symbol id="icon-menu-cross"><path fill="#FFF" d="M15.087 11.933l8.56-8.559a.75.75 0 000-1.061L21.554.22a.747.747 0 00-1.06 0l-8.561 8.56L3.373.22a.771.771 0 00-1.061 0L.22 2.313a.75.75 0 000 1.061l8.56 8.559-8.56 8.559a.751.751 0 000 1.062l2.093 2.094a.744.744 0 001.06 0l8.561-8.56 8.56 8.56a.746.746 0 001.06 0l2.093-2.094a.751.751 0 000-1.062l-8.56-8.559z"/></symbol><symbol id="icon-no"><path d="M16.497 14.376L27.312 3.562a1.5 1.5 0 10-2.121-2.121L14.376 12.255 3.562 1.439A1.5 1.5 0 101.441 3.56l10.814 10.815L1.439 25.19a1.5 1.5 0 102.122 2.121l10.815-10.814L25.19 27.312c.293.293.677.439 1.061.439a1.5 1.5 0 001.061-2.56L16.497 14.376z" fill="#F25B26"/></symbol><symbol id="icon-phone"><path d="M9.848 0C6.34 0 2.823.628 1.546 1.878.488 2.918.134 4.752.016 5.913c0 0-.016.115-.016.165 0 .454.369.82.819.82.054 0 2.028-.161 3.218-.259a.503.503 0 00.086-.017.821.821 0 00.801-.819l.003-1.617c0-.5.407-.902.907-.902h8.027c.499 0 .907.402.907.902l.003 1.617a.82.82 0 00.802.82.474.474 0 00.085.017c1.19.098 3.164.259 3.217.259a.822.822 0 00.822-.82c0-.05-.018-.165-.018-.165-.118-1.161-.472-2.995-1.53-4.035C16.873.628 13.356 0 9.848 0zm0 10.67a1.64 1.64 0 100 3.281 1.64 1.64 0 100-3.281zM8.616 6.975V5.951a1.024 1.024 0 10-2.049 0v1.024L1.03 12.888a2.054 2.054 0 00-.619 1.47v1.646c0 .907.734 1.643 1.641 1.643h.411v1.023a1.026 1.026 0 102.05 0v-1.023h10.669v1.023a1.025 1.025 0 102.051 0v-1.023h.411c.905 0 1.64-.735 1.64-1.643v-1.646c0-.576-.236-1.094-.618-1.47L13.13 6.975V5.951a1.025 1.025 0 10-2.051 0v1.024H8.616zm1.232 2.053a3.28 3.28 0 013.282 3.282 3.28 3.28 0 01-3.282 3.282 3.28 3.28 0 01-3.281-3.282 3.28 3.28 0 013.281-3.282z" fill="#D22856"/></symbol><symbol id="icon-quotes"><path d="M72.354 39.632c-2.797-2.401-6.636-3.604-11.518-3.604h-5.67c.473-4.081 1.278-7.397 2.421-9.948 1.141-2.551 2.854-5.044 5.139-7.477 2.363-2.51 4.685-4.531 6.97-6.063 2.283-1.53 5.274-3.356 8.978-5.477L74.42 0c-2.441 1.495-5.474 3.42-9.096 5.779-3.623 2.359-7.048 5.228-10.276 8.607-3.151 3.302-5.83 7.056-8.033 11.261-2.206 4.204-3.308 8.861-3.308 13.97 0 7.232 1.456 13.07 4.371 17.511 2.913 4.44 7.755 6.661 14.529 6.661 4.33 0 7.737-1.436 10.218-4.311s3.721-5.967 3.721-9.273c0-4.646-1.399-8.171-4.192-10.573zM19.019 18.603c2.362-2.51 4.685-4.531 6.97-6.063 2.283-1.53 5.274-3.356 8.978-5.477L30.713 0c-2.441 1.495-5.475 3.42-9.095 5.779-3.624 2.359-7.05 5.228-10.278 8.607-3.149 3.302-5.828 7.056-8.032 11.261C1.103 29.851 0 34.508 0 39.616c0 7.232 1.457 13.07 4.371 17.511 2.912 4.44 7.756 6.661 14.529 6.661 4.33 0 7.737-1.436 10.218-4.311s3.722-5.967 3.722-9.273c0-4.646-1.399-8.17-4.194-10.572-2.796-2.401-6.635-3.604-11.517-3.604h-5.671c.473-4.081 1.3-7.416 2.481-10.007 1.181-2.589 2.873-5.063 5.08-7.418z" fill="#EFEFEF"/></symbol><symbol id="icon-review-arrow-left"><path d="M2.045 20.859L21.458 1.446A.847.847 0 0020.261.248L.248 20.261a.846.846 0 000 1.197l20.013 20.013a.843.843 0 001.198 0 .847.847 0 000-1.198L2.045 20.859z" fill="#283645"/></symbol><symbol id="icon-review-arrow-right"><path d="M19.661 20.859L.248 1.446A.847.847 0 011.445.248L21.458 20.26c.33.33.33.867 0 1.197L1.445 41.471a.843.843 0 01-1.198 0 .847.847 0 010-1.198l19.414-19.414z"/></symbol><symbol id="icon-timer"><path d="M264.568 102.055l5.355-5.355c7.717-7.717 9.124-18.938 3.126-24.935-5.997-5.997-17.217-4.59-24.934 3.127l-5.386 5.385C221.768 63.292 196.11 51.875 168 48.297v-9.583h7.658c10.914 0 19.843-8.711 19.843-19.357C195.501 8.711 186.573 0 175.659 0h-53.317C111.429 0 102.5 8.711 102.5 19.357c0 10.646 8.929 19.357 19.842 19.357H130v9.583C56.681 57.629 0 120.244 0 196.097c0 82.291 66.709 149 149 149 82.29 0 149-66.709 149-149 0-35.663-12.535-68.394-33.432-94.042zM149 306.264c-60.844 0-110.167-49.323-110.167-110.167S88.156 85.93 149 85.93c60.843 0 110.167 49.323 110.167 110.167S209.843 306.264 149 306.264z" fill="#DEDEDE"/></symbol><symbol id="icon-twitter"><path d="M11.283.153c1.736-.485 3.074.263 3.685 1.151.694-.226 1.372-.47 2.072-.691-.004.841-.538 1.478-.883 1.727.704.166 1.343-.48 1.343-.48-.175.976-1.035 1.746-1.611 1.977-.239 6.592-3.272 10.956-10.382 10.823h-.46c-.422 0-4.29-.45-5.047-1.843 2.341.192 4.011-.412 4.835-1.15-.989-.293-2.761-.464-3.07-2.881.362.105.583.223 1.228.117C1.757 8.067.385 7.366.461 5.218c.294.32 1.1.523 1.381.461C1.117 5.444-.188 2.398.921.843 2.794 2.654 4.769 4.364 8.29 4.528 8.506 2.288 9.461.787 11.283.153z" fill="#D22856"/></symbol><symbol id="icon-yes"><path d="M22.047 1.167a.999.999 0 00-1.414 0L7.25 14.551l-4.9-4.9a.999.999 0 10-1.414 1.414l5.607 5.607a.997.997 0 001.414 0l14.09-14c.391-.481.391-1.114 0-1.505z" fill="#3DC644"/></symbol><symbol id="icon-youtube"><path d="M1.775 13.78C.799 14.257 0 13.758 0 12.671V1.29C0 .202.799-.295 1.775.181l12.133 5.932c.975.478.975 1.258 0 1.736L1.775 13.78z" fill="#D22856"/></symbol></svg>